<?xml version="1.0" standalone="no"?>
<!DOCTYPE svg PUBLIC "-//W3C//DTD SVG 20010904//EN"
 "http://www.w3.org/TR/2001/REC-SVG-20010904/DTD/svg10.dtd">
<svg version="1.0" xmlns="http://www.w3.org/2000/svg"
 width="85" height="63" viewBox="0 0 2550.000000 2003.000000"
 preserveAspectRatio="xMidYMid meet">

<g transform="translate(0.000000,2003.000000) scale(0.100000,-0.100000)"
fill="#000000" stroke="none">
<path d="M14070 18374 c-1585 -89 -2946 -419 -4420 -1072 -388 -172 -944 -460
-1305 -676 -152 -91 -140 -83 -405 -258 -113 -74 -230 -151 -260 -170 -30 -20
-95 -71 -145 -115 -49 -43 -115 -95 -145 -115 -88 -58 -147 -114 -134 -128 8
-8 34 -5 100 13 103 29 225 55 304 65 44 6 88 26 215 98 806 459 1689 831
2585 1089 698 201 1332 316 2125 384 1047 92 1654 89 2715 -10 1612 -150 3059
-588 4322 -1308 398 -226 1033 -637 1338 -865 263 -196 752 -663 991 -946 763
-903 1153 -1845 1254 -3025 20 -240 19 -405 -5 -680 -41 -468 -93 -769 -197
-1121 -64 -221 -93 -334 -93 -371 0 -18 14 -69 30 -115 17 -46 41 -132 54
-193 13 -60 34 -141 45 -180 13 -42 21 -98 21 -141 0 -82 8 -134 22 -134 12 0
150 215 196 307 251 500 475 1175 601 1808 38 195 47 250 76 500 7 66 19 143
26 170 20 79 17 618 -5 830 -40 391 -82 598 -197 975 -178 581 -458 1177 -786
1680 -985 1505 -2591 2596 -4733 3215 -712 206 -1432 342 -2136 405 -186 16
-382 34 -434 40 -316 34 -504 42 -1020 45 -294 1 -564 1 -600 -1z"/>
<path d="M18322 14428 c-11 -51 -8 -98 8 -98 4 0 17 9 30 20 12 11 38 22 57
26 63 12 1314 -6 1511 -21 61 -5 102 -18 102 -33 0 -7 -149 -16 -210 -13 -19
1 -74 2 -122 2 -54 0 -88 4 -88 11 0 9 -29 7 -110 -6 -38 -7 -261 -38 -290
-41 -14 -1 -50 -5 -80 -9 -30 -3 -184 -8 -342 -10 -254 -3 -290 -5 -314 -21
-40 -26 -73 -65 -95 -112 -11 -24 -33 -57 -49 -74 -15 -17 -31 -46 -34 -64 -4
-19 -23 -50 -46 -74 -25 -26 -41 -53 -46 -78 -4 -21 -19 -50 -35 -66 -15 -16
-35 -49 -43 -75 -9 -26 -29 -62 -45 -81 -16 -18 -34 -51 -41 -72 -7 -21 -25
-49 -40 -63 -17 -15 -33 -44 -41 -76 -9 -35 -22 -58 -40 -71 -14 -10 -31 -31
-37 -46 -5 -16 -14 -37 -18 -48 -4 -11 -8 -23 -8 -26 -1 -3 -16 -20 -33 -38
-18 -18 -33 -39 -33 -48 0 -20 -41 -93 -52 -93 -5 0 -17 -19 -27 -42 -10 -24
-30 -61 -45 -83 l-27 -39 23 -9 c26 -10 1 -10 677 -2 283 3 519 8 524 12 5 3
39 7 75 10 85 5 138 10 182 19 61 11 241 28 285 26 119 -4 406 -1 425 5 14 3
250 7 525 8 275 1 581 7 680 13 216 12 425 14 480 3 60 -11 82 3 94 61 14 61
14 125 2 220 -6 40 -12 102 -14 138 -4 62 -30 140 -47 140 -12 0 -21 28 -30
93 -6 42 -16 66 -35 84 -14 15 -34 46 -45 70 -28 63 -262 296 -315 313 -22 7
-51 26 -65 42 -18 21 -37 30 -65 34 -22 2 -49 8 -60 11 -11 4 -27 8 -35 9 -8
2 -23 12 -32 24 -9 12 -27 23 -40 25 -13 3 -34 7 -48 10 -14 2 -61 7 -105 10
-44 3 -93 8 -110 12 -35 6 -97 42 -91 52 3 4 -7 8 -22 9 -14 1 -29 7 -33 13
-4 7 -18 9 -34 5 -17 -4 -24 -3 -20 4 3 5 17 10 31 10 14 0 23 4 20 8 -3 5 0
9 7 10 7 0 26 3 42 6 17 3 71 7 122 9 84 3 100 1 172 -27 48 -19 98 -48 127
-74 31 -27 69 -48 104 -58 30 -9 60 -20 65 -24 6 -4 28 -11 50 -15 22 -4 46
-11 53 -17 6 -6 12 -8 12 -4 0 13 114 -46 156 -81 45 -37 55 -47 131 -124 19
-19 43 -54 53 -77 11 -23 27 -45 37 -49 28 -11 55 -39 52 -54 -4 -21 11 -92
23 -106 6 -7 19 -13 29 -13 17 0 18 5 13 43 -6 41 -24 79 -50 105 -7 7 -19 40
-25 74 -19 94 -124 226 -282 352 -58 46 -145 96 -169 96 -7 0 -59 23 -116 51
-115 57 -215 81 -397 99 -68 6 -525 10 -1200 10 l-1090 0 -13 -52z"/>
<path d="M15346 14449 c-138 -3 -293 -7 -344 -8 -56 0 -91 -5 -87 -10 8 -14
-71 -17 -225 -9 -180 10 -1277 1 -1316 -11 -66 -19 -94 -53 -94 -113 0 -11
-18 -45 -40 -77 -22 -31 -40 -69 -40 -83 0 -15 -16 -45 -39 -73 -22 -27 -44
-68 -51 -93 -6 -25 -21 -53 -35 -64 -13 -10 -33 -44 -45 -76 -12 -31 -30 -66
-40 -77 -27 -29 -52 -93 -43 -110 7 -12 13 -12 33 -2 19 9 29 27 40 70 11 40
25 65 47 84 24 21 34 39 38 73 8 60 15 81 24 75 12 -7 46 27 49 50 4 35 25 95
32 95 21 0 60 55 60 84 0 36 18 66 41 69 9 2 31 18 49 36 l33 32 466 -6 c256
-4 498 -11 536 -16 39 -5 106 -14 150 -19 44 -6 108 -11 142 -11 43 0 63 -4
66 -14 5 -11 -28 -13 -191 -13 -108 1 -277 -4 -376 -11 -98 -6 -287 -12 -420
-12 -142 -1 -254 -5 -272 -11 -17 -6 -39 -24 -48 -40 -10 -15 -35 -49 -57 -74
-21 -25 -39 -51 -39 -58 0 -18 -30 -76 -39 -76 -11 0 -38 -52 -46 -90 -4 -19
-20 -49 -36 -65 -15 -17 -35 -50 -44 -74 -8 -24 -28 -59 -45 -77 -16 -19 -32
-47 -36 -62 -9 -43 -26 -82 -35 -82 -25 0 -57 -61 -63 -122 -1 -4 -15 -22 -32
-40 -56 -60 -72 -118 -36 -137 37 -20 942 -15 974 5 4 2 9 0 13 -5 3 -6 12 -8
19 -5 13 5 29 -10 32 -31 1 -5 3 -19 5 -30 4 -29 -43 -115 -84 -152 -25 -22
-38 -46 -47 -82 -7 -29 -21 -59 -34 -69 -11 -9 -34 -45 -50 -79 -16 -35 -34
-63 -38 -63 -5 0 -22 -30 -39 -67 -17 -38 -41 -79 -54 -93 -13 -14 -28 -42
-34 -63 -5 -21 -24 -52 -41 -69 -17 -16 -38 -50 -45 -75 -13 -42 -47 -88 -57
-77 -3 2 -13 -24 -24 -58 -11 -36 -32 -78 -50 -98 -17 -19 -36 -51 -43 -71 -6
-20 -23 -46 -36 -59 -13 -13 -31 -47 -40 -76 -9 -32 -25 -61 -41 -73 -14 -11
-32 -41 -39 -66 -8 -26 -27 -56 -43 -69 -17 -15 -35 -46 -45 -78 -9 -30 -26
-64 -37 -75 -11 -12 -31 -46 -44 -76 -13 -30 -32 -60 -43 -68 -11 -8 -28 -36
-38 -64 -10 -27 -33 -64 -51 -81 -18 -17 -36 -44 -39 -60 -11 -50 -27 -84 -39
-84 -15 0 -46 -53 -46 -79 0 -12 -4 -21 -10 -21 -5 0 -10 -8 -10 -19 0 -10 -8
-21 -18 -23 -12 -4 -23 -22 -32 -53 -7 -26 -23 -59 -35 -74 -29 -34 -52 -80
-59 -113 -3 -14 -19 -39 -36 -55 -17 -15 -37 -50 -46 -76 -9 -26 -29 -62 -46
-80 -16 -18 -32 -44 -35 -59 -3 -15 -20 -44 -38 -66 -18 -21 -38 -57 -44 -79
-6 -23 -24 -55 -40 -70 -35 -35 -48 -59 -54 -101 -5 -29 -39 -71 -59 -72 -4 0
-14 -23 -22 -51 -9 -28 -27 -61 -41 -73 -13 -12 -31 -43 -39 -70 -8 -27 -28
-63 -44 -80 -16 -17 -35 -48 -42 -70 -7 -21 -27 -55 -45 -75 -37 -42 -60 -101
-51 -137 5 -18 16 -27 39 -31 17 -4 35 -6 39 -5 6 1 36 6 103 17 23 4 25 3 10
-4 -31 -13 62 -24 103 -12 17 5 32 8 32 5 0 -2 10 2 23 10 33 22 96 25 615 31
277 4 484 10 500 16 40 15 89 71 103 117 6 23 20 50 30 60 9 11 29 44 44 75
14 31 36 64 48 74 13 10 29 38 37 63 8 25 26 56 40 70 14 14 38 53 54 88 17
34 38 70 47 78 10 9 21 28 24 44 3 15 19 40 35 55 17 16 39 53 50 82 11 30 33
67 49 82 16 16 35 47 41 70 6 22 22 53 37 68 14 16 34 48 45 72 10 24 31 59
47 77 16 18 34 49 41 70 7 21 23 47 36 59 12 12 32 46 44 77 11 30 30 64 41
74 12 11 33 42 46 69 14 28 34 55 43 62 10 7 25 36 35 65 9 29 29 64 45 78 15
14 35 48 45 75 10 28 27 56 38 64 10 7 32 42 48 76 16 35 35 65 43 68 8 3 22
29 31 57 10 29 26 61 37 72 27 27 58 80 58 100 0 9 11 28 24 41 13 13 34 44
46 68 13 24 35 59 50 79 15 19 31 48 34 64 4 16 22 43 40 60 23 21 39 50 50
88 11 40 25 63 45 77 18 13 33 36 40 64 7 24 25 56 41 70 15 15 31 42 34 62 4
21 21 48 41 68 21 21 38 50 45 79 8 29 23 57 42 73 16 14 38 46 48 69 10 24
29 55 43 68 14 14 30 43 36 65 6 22 23 50 37 64 25 23 60 79 50 79 -17 0 20
59 49 79 19 13 35 31 35 40 0 8 12 39 26 68 37 72 72 85 224 83 63 -1 375 1
693 3 l578 5 52 27 c68 34 78 43 101 85 10 19 29 46 42 60 12 14 31 45 42 70
11 25 29 54 41 64 12 11 31 40 41 64 11 24 33 60 50 78 16 19 30 41 30 49 0 8
20 37 45 65 25 29 45 61 45 74 0 12 16 40 35 62 20 21 44 58 55 82 10 23 26
45 35 48 40 16 75 145 45 164 -7 4 -33 6 -59 4 -25 -2 -53 -4 -61 -5 -8 0 -22
-3 -30 -6 -8 -3 -22 -8 -30 -10 -8 -2 -328 -5 -710 -8 -382 -2 -771 -7 -865
-10 -279 -10 -901 -14 -915 -5 -13 8 25 22 70 25 44 4 293 17 345 19 28 1 56
5 63 9 6 5 16 6 21 3 4 -3 35 2 67 10 33 9 95 21 139 28 96 14 109 36 30 49
-30 5 -64 19 -85 36 -50 40 -75 51 -105 48 -15 -1 -141 -5 -279 -8z"/>
<path d="M18035 14448 c-22 -5 -76 -12 -120 -14 -44 -3 -86 -6 -92 -6 -7 -1
-13 -7 -13 -13 0 -7 11 -11 25 -10 14 2 27 -1 30 -5 3 -5 19 -4 35 2 43 14 77
3 95 -32 9 -17 19 -30 23 -30 4 0 27 20 51 44 29 29 42 50 38 60 -7 18 -14 18
-72 4z"/>
<path d="M17500 14430 l-35 -7 28 -11 c38 -16 106 -14 137 3 25 14 25 14 -15
16 -22 1 -49 2 -60 3 -11 1 -36 -1 -55 -4z"/>
<path d="M7942 14400 c-40 -3 -76 -11 -81 -16 -4 -5 -131 -216 -281 -469 -151
-253 -281 -471 -289 -485 -15 -25 -15 -25 5 -7 34 28 43 22 33 -24 -6 -24 -21
-50 -37 -64 -15 -12 -35 -45 -45 -73 -17 -47 -38 -69 -57 -57 -4 3 -6 15 -3
28 4 17 -1 14 -19 -13 -31 -44 -138 -226 -138 -234 0 -4 7 -6 16 -4 29 5 25
-35 -6 -70 -16 -19 -34 -50 -41 -70 -6 -20 -27 -57 -45 -81 -19 -24 -34 -50
-34 -57 0 -8 -20 -44 -45 -81 -25 -37 -45 -74 -45 -83 0 -9 -14 -29 -31 -46
-30 -28 -47 -58 -55 -98 -2 -11 -19 -36 -38 -55 -18 -20 -37 -47 -41 -60 -4
-14 -23 -48 -41 -77 -19 -29 -35 -62 -37 -74 -2 -11 -17 -35 -35 -53 -17 -17
-40 -53 -52 -80 -12 -26 -34 -61 -50 -77 -17 -17 -33 -43 -36 -58 -4 -15 -21
-43 -39 -62 -33 -35 -71 -99 -67 -112 1 -5 -2 -8 -8 -8 -9 0 -14 14 -11 33 7
44 -79 -83 -144 -213 -15 -30 -38 -68 -50 -85 -13 -16 -62 -95 -109 -174 -48
-79 -118 -192 -156 -252 -39 -59 -70 -110 -70 -113 0 -3 7 -6 15 -6 28 0 27
-27 -4 -82 -17 -30 -31 -66 -31 -79 0 -16 -11 -33 -30 -47 -16 -12 -38 -41
-48 -64 -11 -24 -36 -67 -56 -97 -20 -29 -36 -60 -36 -68 0 -9 -16 -37 -35
-63 -21 -29 -39 -68 -44 -96 -5 -27 -14 -50 -20 -52 -36 -12 -85 -175 -55
-186 30 -11 74 84 74 159 0 26 22 57 37 54 13 -3 33 44 33 77 0 30 37 91 48
79 8 -8 41 65 42 91 0 13 14 31 34 45 19 13 32 27 30 31 -3 4 -1 8 4 8 6 0 13
23 17 50 6 41 12 53 34 64 26 14 38 32 61 92 6 17 24 40 39 51 16 12 33 39 40
64 7 24 23 53 35 66 11 12 31 46 42 75 12 29 31 57 42 63 11 5 30 30 42 55 12
25 37 61 56 80 102 108 119 132 160 232 24 57 43 118 44 136 0 24 9 41 34 65
28 26 36 42 41 85 4 29 9 51 12 48 11 -11 55 47 69 92 10 30 24 52 37 58 24
10 56 67 57 102 0 12 5 22 10 22 6 0 10 8 11 18 0 10 3 12 6 5 8 -22 34 13 40
54 7 44 19 62 50 74 26 10 56 74 49 104 -6 23 3 39 24 43 23 5 40 23 40 41 0
23 45 113 56 110 10 -2 43 58 44 82 0 8 14 25 31 38 34 25 51 61 51 108 0 18
3 32 7 31 19 -6 54 29 76 78 14 30 25 59 25 65 0 6 4 8 9 5 13 -9 38 25 49 67
6 21 19 46 30 55 28 25 49 63 56 101 3 19 19 45 35 60 17 14 39 52 51 83 13
35 28 59 40 63 11 4 25 25 35 55 9 28 27 58 39 67 22 18 41 49 70 116 8 20 20
37 26 37 6 0 21 24 34 53 14 28 36 65 50 82 14 16 28 42 32 58 3 15 16 38 28
50 32 33 116 145 128 173 6 13 15 24 20 24 4 0 8 8 8 18 0 23 35 79 74 119 29
30 37 33 111 38 44 2 107 9 140 15 33 5 95 10 137 10 47 0 78 4 80 11 2 6 44
15 93 20 98 10 123 19 52 19 -26 0 -47 4 -47 10 0 5 -7 7 -15 4 -11 -5 -13 -2
-9 9 3 9 33 25 67 36 l62 20 -285 -1 c-157 -1 -318 -4 -358 -8z"/>
<path d="M10014 14355 c-25 -13 -56 -21 -75 -19 -49 3 -122 6 -136 5 -7 -1
-13 -8 -13 -16 0 -13 14 -15 90 -10 103 6 114 -1 86 -59 -9 -19 -16 -48 -16
-66 0 -35 -17 -73 -29 -66 -14 9 -38 -26 -56 -82 -12 -37 -24 -56 -40 -62 -22
-8 -45 -55 -45 -92 0 -10 -16 -34 -35 -54 -22 -21 -39 -52 -46 -80 -7 -28 -21
-51 -35 -61 -13 -8 -33 -40 -44 -71 -12 -32 -32 -68 -45 -82 -26 -29 -55 -82
-55 -104 0 -8 -14 -28 -31 -45 -17 -17 -35 -47 -40 -67 -6 -19 -25 -52 -43
-72 -18 -21 -37 -59 -44 -87 -9 -34 -23 -57 -42 -73 -21 -16 -32 -37 -41 -77
-7 -30 -15 -52 -19 -50 -13 8 -58 -50 -65 -85 -4 -19 -23 -52 -41 -73 -19 -20
-34 -47 -34 -60 -1 -29 -19 -61 -51 -86 -16 -12 -31 -39 -39 -68 -8 -26 -22
-54 -33 -62 -10 -7 -32 -42 -49 -77 -17 -35 -36 -64 -44 -64 -15 0 -39 -48
-49 -96 -3 -17 -19 -44 -35 -59 -17 -16 -30 -32 -30 -37 0 -21 -44 -98 -55
-98 -11 0 -54 -92 -55 -118 0 -4 -17 -23 -36 -42 -19 -19 -38 -47 -41 -62 -3
-16 -9 -28 -14 -28 -5 0 -9 -7 -9 -15 0 -8 -4 -15 -8 -15 -5 0 -18 -18 -31
-40 -12 -22 -20 -40 -16 -40 10 0 -22 -54 -54 -89 -17 -19 -34 -50 -37 -70 -4
-20 -15 -42 -25 -49 -21 -14 -43 -59 -58 -114 -9 -36 -38 -76 -50 -70 -3 2
-11 -16 -17 -40 -13 -53 -32 -90 -43 -84 -10 7 -51 -66 -51 -92 0 -12 -16 -36
-35 -54 -28 -26 -37 -44 -44 -86 -9 -58 -11 -62 -37 -66 -18 -3 -64 -77 -64
-103 0 -8 -4 -11 -10 -8 -5 3 -10 2 -10 -4 0 -5 -7 -17 -16 -26 -10 -9 -23
-42 -30 -73 -22 -92 -23 -90 46 -108 3 0 23 -9 45 -19 22 -10 51 -20 65 -22
l25 -3 -27 15 c-60 34 -62 82 -8 181 33 61 37 73 23 78 -28 11 -9 91 32 137
19 22 35 47 35 57 0 10 15 36 34 58 36 43 66 95 66 117 0 17 60 69 75 64 5 -2
8 -13 7 -23 -3 -13 0 -16 7 -9 11 12 459 787 869 1505 l26 45 -37 -39 c-21
-22 -39 -37 -41 -35 -3 2 1 24 7 49 12 44 37 80 57 80 6 0 11 5 11 10 2 12 2
14 17 66 7 24 24 50 41 63 18 14 32 36 35 57 4 19 11 34 17 34 6 0 8 4 5 9 -3
5 1 12 9 15 9 3 18 0 21 -8 6 -16 -21 -86 -34 -86 -10 0 -47 -78 -40 -85 4 -4
463 789 560 967 20 38 62 109 92 158 31 49 56 93 56 97 -1 5 -18 -12 -40 -36
l-39 -45 6 34 c2 19 13 42 24 51 10 9 26 32 34 52 25 61 65 88 65 45 0 -18 10
-9 40 37 l40 60 -28 22 c-34 28 -74 27 -128 -2z m-844 -1677 c0 -7 -9 -24 -20
-38 -19 -24 -20 -25 -20 -3 0 12 7 29 16 37 19 19 24 20 24 4z"/>
<path d="M5609 14354 c-7 -8 -29 -24 -49 -34 -21 -11 -51 -30 -67 -44 -27 -23
-65 -45 -231 -132 -35 -18 -71 -39 -79 -46 -20 -16 -129 -78 -208 -116 -57
-28 -94 -64 -166 -162 -14 -19 -56 -66 -93 -105 -150 -156 -472 -742 -668
-1215 -218 -526 -379 -1135 -419 -1583 -16 -176 -6 -758 15 -927 74 -581 253
-1160 541 -1745 292 -593 615 -1060 1041 -1505 277 -290 405 -406 874 -790
356 -292 733 -552 1238 -854 259 -154 772 -433 832 -451 14 -4 41 -18 60 -31
19 -13 57 -31 84 -40 28 -10 71 -29 96 -44 25 -14 70 -34 100 -44 30 -10 73
-28 95 -41 22 -12 65 -31 95 -40 30 -10 80 -30 110 -45 30 -16 81 -35 112 -44
32 -9 73 -26 92 -37 19 -11 72 -30 117 -43 46 -13 102 -33 124 -44 22 -11 75
-29 118 -41 43 -12 96 -30 117 -41 22 -11 78 -29 125 -40 47 -11 103 -29 125
-40 21 -11 74 -29 117 -41 43 -11 97 -32 121 -46 113 -65 841 -234 1430 -332
1290 -216 2743 -223 3902 -20 96 17 193 32 215 34 63 7 318 61 563 120 1194
291 2338 781 3350 1437 944 612 1738 1307 2400 2100 77 94 168 239 212 344 22
51 57 251 45 262 -9 9 -71 -65 -100 -119 -13 -25 -35 -59 -48 -75 -13 -16 -32
-45 -42 -64 -10 -19 -71 -106 -136 -193 -66 -86 -119 -160 -119 -163 0 -3 -36
-49 -81 -102 -44 -53 -119 -144 -167 -202 -115 -140 -249 -270 -320 -314 -41
-25 -120 -101 -263 -252 -287 -305 -564 -538 -959 -806 -544 -370 -1299 -737
-2020 -983 -489 -166 -1158 -335 -1640 -415 -63 -10 -122 -21 -130 -24 -29
-10 -451 -57 -563 -62 -62 -3 -161 -9 -222 -15 -185 -16 -984 -23 -1255 -10
-553 26 -1005 72 -1485 152 -188 31 -596 110 -700 135 -33 8 -121 27 -195 43
-74 17 -159 39 -189 51 -29 11 -90 28 -134 36 -45 9 -108 27 -142 40 -33 14
-98 34 -145 46 -47 11 -103 30 -125 41 -22 11 -82 31 -134 44 -51 12 -108 31
-125 42 -17 10 -67 29 -111 41 -44 11 -95 30 -113 41 -19 11 -64 28 -101 38
-37 10 -94 32 -126 49 -33 16 -76 33 -95 37 -19 4 -63 22 -97 40 -34 19 -83
40 -110 48 -26 8 -79 31 -118 51 -38 20 -77 36 -86 36 -8 0 -36 13 -61 29 -25
16 -56 32 -69 36 -38 10 -328 152 -545 266 -863 452 -1554 954 -2227 1618
-258 255 -441 458 -641 711 -202 257 -236 303 -373 516 -17 27 -45 67 -61 89
-16 23 -40 61 -52 85 -13 25 -32 56 -42 70 -11 14 -26 41 -34 60 -8 19 -26 51
-39 70 -34 51 -83 141 -184 345 -158 318 -243 526 -277 678 -13 59 -35 134
-49 167 -14 33 -34 103 -44 157 -11 54 -29 125 -41 158 -11 33 -30 123 -41
200 -10 77 -28 181 -38 230 -39 177 -45 292 -45 775 0 507 -1 497 68 935 86
548 227 1005 464 1500 47 99 94 193 105 208 11 16 27 48 36 72 15 40 43 92
118 222 18 30 30 59 27 64 -8 14 -30 11 -45 -7z"/>
<path d="M9620 14325 c-10 -12 -2 -14 51 -12 36 1 64 7 66 13 6 18 -102 17
-117 -1z"/>
<path d="M9435 14321 c-25 -6 -20 -9 37 -15 36 -5 72 -6 80 -3 7 3 -7 6 -32 8
l-45 2 45 7 45 7 -50 0 c-27 0 -63 -3 -80 -6z"/>
<path d="M8503 14293 c15 -2 37 -2 50 0 12 2 0 4 -28 4 -27 0 -38 -2 -22 -4z"/>
<path d="M14558 14253 c7 -3 16 -2 19 1 4 3 -2 6 -13 5 -11 0 -14 -3 -6 -6z"/>
<path d="M8035 14152 c-26 -4 -98 -69 -117 -107 -9 -16 -19 -45 -23 -62 -3
-18 -17 -41 -29 -50 -12 -10 -37 -48 -56 -85 -18 -38 -36 -68 -41 -68 -4 0
-13 -16 -19 -35 -6 -19 -29 -55 -50 -81 -21 -26 -41 -62 -45 -81 -3 -20 -23
-52 -46 -76 -21 -23 -39 -51 -39 -63 0 -12 -13 -39 -29 -61 -15 -21 -38 -60
-49 -86 -11 -26 -35 -61 -51 -79 -17 -18 -34 -47 -37 -65 -4 -19 -20 -44 -40
-61 -31 -27 -51 -62 -60 -107 -2 -11 -12 -27 -22 -35 -9 -8 -28 -40 -41 -70
-13 -30 -37 -68 -53 -85 -16 -17 -31 -45 -34 -66 -4 -24 -18 -49 -40 -70 -18
-18 -39 -49 -45 -68 -12 -36 -49 -92 -49 -75 -1 5 -12 -16 -26 -46 -14 -30
-36 -66 -49 -80 -13 -14 -31 -49 -40 -78 -10 -29 -30 -65 -46 -80 -16 -15 -36
-48 -44 -73 -9 -26 -25 -55 -37 -65 -11 -11 -33 -47 -49 -81 -15 -35 -33 -63
-39 -63 -5 0 -10 -6 -10 -14 0 -7 -6 -19 -14 -25 -8 -7 -17 -25 -21 -40 -3
-16 -19 -41 -35 -56 -18 -17 -33 -46 -40 -76 -9 -36 -21 -56 -44 -74 -20 -15
-38 -43 -50 -77 -10 -29 -29 -63 -42 -75 -14 -12 -27 -36 -31 -54 -3 -17 -21
-46 -40 -64 -20 -20 -40 -53 -49 -81 -8 -27 -27 -59 -43 -73 -16 -15 -33 -40
-37 -56 -9 -35 -43 -95 -54 -95 -4 0 -15 -21 -24 -46 -8 -25 -31 -64 -51 -85
-20 -22 -35 -50 -35 -63 0 -16 -16 -41 -43 -69 -30 -30 -48 -59 -55 -89 -6
-24 -25 -60 -41 -79 -17 -19 -33 -46 -36 -62 -4 -15 -20 -40 -36 -57 -16 -16
-36 -48 -44 -71 -8 -23 -28 -56 -45 -75 -16 -19 -34 -51 -39 -71 -10 -36 -21
-55 -64 -116 -10 -14 -20 -38 -23 -53 -6 -42 -34 -114 -44 -114 -22 0 -33 -78
-37 -266 -6 -216 -5 -218 50 -279 10 -11 23 -40 29 -64 7 -29 25 -58 47 -81
20 -19 43 -44 51 -55 8 -12 37 -31 64 -44 27 -12 61 -35 77 -50 15 -15 33 -28
41 -28 57 -2 143 -26 180 -50 42 -27 45 -28 218 -30 167 -2 177 -1 230 23 39
18 79 26 140 30 201 13 474 21 728 22 150 1 312 6 360 12 131 15 350 19 357 6
4 -8 6 -8 10 0 4 7 22 8 50 4 34 -5 45 -4 45 7 0 7 9 13 20 13 31 0 34 1 49
13 7 6 30 13 50 14 66 6 532 16 824 19 251 3 309 5 387 18 8 1 31 8 50 14 20
7 72 14 115 17 44 3 98 7 120 10 22 2 103 9 181 14 141 9 184 20 214 56 7 8
33 20 57 27 56 14 201 135 249 208 18 28 40 58 48 66 9 8 20 33 26 55 6 22 22
50 35 61 14 12 34 46 45 75 11 30 30 64 41 76 12 12 32 45 44 72 12 28 35 62
50 78 15 15 25 27 22 27 -15 0 26 84 57 117 21 23 36 51 40 75 4 24 19 51 40
73 20 20 41 57 51 89 10 30 24 57 31 60 8 3 25 31 39 62 13 30 36 69 49 85 14
16 30 46 35 66 6 20 23 50 39 67 16 17 37 54 47 81 10 28 31 64 47 81 16 17
33 47 38 65 4 19 9 41 11 49 2 8 16 26 30 40 15 14 36 45 47 70 11 25 32 58
45 74 14 16 30 48 36 72 7 28 21 50 40 64 23 16 32 33 41 75 8 39 19 61 39 78
16 13 38 45 50 71 11 26 32 61 45 77 14 16 28 45 32 63 3 19 19 48 36 65 16
16 39 54 50 83 11 29 30 67 42 83 13 17 29 47 37 68 7 21 28 54 46 74 18 19
40 58 48 85 8 28 25 58 39 69 13 11 32 41 40 67 9 26 28 60 42 75 14 15 32 47
40 70 8 23 29 59 48 80 19 21 39 57 45 80 6 24 23 54 40 70 17 16 36 47 42 70
6 23 21 53 34 67 12 14 37 55 54 93 18 37 36 65 40 62 12 -7 41 75 41 117 0
32 -4 38 -32 46 -45 14 -152 15 -213 2 -27 -6 -68 -13 -90 -15 -22 -3 -64 -10
-95 -16 -30 -6 -82 -12 -115 -14 -53 -4 -793 -16 -983 -16 -81 0 -77 2 -148
-87 -18 -24 -39 -61 -46 -83 -6 -22 -21 -48 -32 -57 -27 -22 -51 -60 -60 -95
-3 -15 -18 -41 -32 -57 -29 -32 -54 -76 -54 -94 0 -7 -13 -25 -29 -40 -15 -15
-33 -44 -39 -64 -6 -20 -27 -55 -46 -77 -21 -24 -40 -60 -47 -88 -6 -28 -21
-55 -35 -66 -13 -10 -31 -38 -41 -63 -10 -25 -31 -61 -47 -81 -16 -21 -35 -53
-42 -73 -7 -20 -24 -48 -37 -63 -14 -14 -28 -37 -32 -51 -14 -50 -37 -89 -55
-95 -10 -3 -22 -19 -25 -35 -4 -17 -11 -32 -16 -35 -5 -4 -9 -14 -9 -24 0 -10
-7 -25 -16 -32 -23 -19 -64 -85 -64 -103 0 -8 -14 -28 -30 -46 -17 -18 -35
-51 -41 -74 -7 -27 -25 -56 -49 -80 -26 -25 -40 -49 -45 -76 -4 -21 -20 -53
-36 -71 -17 -19 -39 -54 -50 -78 -10 -24 -28 -51 -39 -61 -10 -9 -26 -39 -35
-66 -10 -27 -29 -62 -45 -79 -32 -35 -50 -67 -50 -90 0 -10 -17 -38 -38 -64
-22 -25 -42 -60 -45 -78 -4 -18 -21 -47 -39 -66 -19 -19 -38 -53 -45 -80 -11
-42 -24 -63 -58 -101 -6 -6 -17 -26 -25 -45 -8 -19 -34 -48 -62 -68 -26 -19
-48 -39 -48 -44 0 -5 -7 -9 -15 -9 -8 0 -15 -4 -15 -8 0 -5 -6 -9 -12 -10 -54
-4 -166 -46 -180 -66 -4 -7 -55 -11 -125 -12 -65 0 -143 -4 -173 -7 -30 -4
-255 -9 -500 -11 -501 -5 -475 -8 -545 71 -36 41 -40 51 -39 98 0 55 21 135
35 135 13 0 39 44 45 74 7 41 21 73 45 100 12 14 30 48 39 76 10 29 31 64 47
79 20 18 35 46 44 80 9 38 20 56 36 64 15 7 29 30 44 74 11 36 27 67 35 70 7
3 25 30 40 61 15 32 40 74 56 94 16 21 34 53 39 72 5 18 20 44 34 58 13 13 33
49 45 79 11 31 31 66 45 79 13 12 32 45 41 72 9 28 28 64 43 81 15 18 37 57
49 87 13 31 31 61 42 68 10 6 22 27 26 47 4 21 21 49 45 72 29 28 40 49 45 80
5 32 15 50 39 71 23 19 38 44 49 83 9 31 26 65 37 75 11 10 32 43 46 74 15 30
37 65 50 77 12 12 23 31 23 41 0 21 45 93 66 105 8 4 21 32 29 62 9 30 26 63
38 72 26 21 59 87 62 124 0 4 12 19 28 34 15 15 32 45 38 66 7 21 25 51 41 68
16 16 35 52 44 81 8 28 22 54 30 57 16 6 54 74 54 97 0 8 17 32 39 55 26 27
40 52 45 81 4 25 19 54 39 78 19 20 39 52 47 70 7 18 26 47 41 64 17 17 32 47
35 68 4 26 18 50 45 76 22 22 39 48 39 60 0 38 17 71 60 115 48 50 55 100 18
120 -17 9 -227 12 -833 13 -445 1 -819 0 -830 -2z"/>
<path d="M12909 13602 c-34 -34 -51 -116 -24 -110 32 6 57 51 53 96 l-3 41
-26 -27z"/>
<path d="M17511 13569 c-23 -38 -26 -55 -10 -64 22 -14 61 67 41 87 -8 8 -17
1 -31 -23z"/>
<path d="M17830 13571 c-11 -29 -8 -51 9 -51 13 0 31 48 25 65 -9 23 -20 18
-34 -14z"/>
<path d="M21687 13584 c-6 -6 -1 -130 7 -169 7 -34 33 -77 40 -66 4 6 9 32 13
59 8 74 -35 201 -60 176z"/>
<path d="M17746 13448 c-20 -28 -21 -68 -2 -68 24 0 46 29 46 61 0 35 -22 39
-44 7z"/>
<path d="M17424 13425 c-17 -41 -18 -65 -3 -65 19 0 48 44 49 73 0 39 -28 35
-46 -8z"/>
<path d="M10933 13430 c-34 -5 -71 -14 -82 -20 -12 -6 -50 -45 -85 -88 -36
-42 -80 -92 -99 -110 -30 -27 -168 -252 -245 -397 -46 -88 -155 -313 -174
-360 -10 -27 -34 -70 -52 -95 -18 -25 -62 -106 -98 -180 -37 -74 -87 -164
-112 -200 -25 -36 -62 -89 -81 -118 -20 -30 -55 -75 -79 -100 -73 -79 -282
-437 -321 -551 -25 -76 -77 -162 -120 -201 -25 -23 -135 -198 -135 -215 0 -4
10 4 21 19 30 38 63 32 67 -13 3 -26 -3 -40 -26 -65 -17 -17 -37 -47 -45 -67
-13 -31 -72 -87 -87 -82 -3 1 -13 -7 -22 -17 -12 -13 -14 -20 -5 -23 7 -2 0
-6 -15 -9 -42 -8 -45 20 -4 37 29 12 34 20 38 54 l3 39 -35 -28 c-19 -15 -55
-38 -80 -51 -45 -24 -45 -24 -510 -31 -256 -3 -487 -8 -515 -11 -27 -2 -57 -5
-65 -6 -9 0 -24 -14 -33 -31 -40 -68 17 -119 136 -122 70 -2 238 6 362 18 33
3 72 5 87 5 15 -1 43 8 62 19 20 11 36 15 36 9 0 -5 5 -7 11 -4 5 4 79 8 163
9 84 2 159 7 166 11 8 5 34 8 59 8 64 -1 106 13 121 42 7 14 17 25 22 25 17 0
70 45 89 77 12 18 26 33 33 33 7 0 25 23 40 52 28 51 56 87 56 71 1 -19 40 44
40 64 0 12 16 36 36 55 20 18 50 56 68 83 18 28 39 57 48 65 8 8 23 38 33 65
11 28 32 74 48 103 15 28 25 52 22 52 -9 0 35 80 56 103 10 12 20 24 20 29 1
4 3 13 4 18 1 6 3 17 4 25 0 9 16 31 35 50 19 19 44 54 55 77 11 24 38 63 60
88 23 24 41 48 41 52 0 5 14 24 32 44 18 19 38 47 44 62 7 15 29 45 48 67 56
63 58 65 86 119 15 28 34 65 43 81 8 17 22 46 30 65 41 97 60 135 87 169 15
20 34 56 41 81 7 25 20 56 30 70 15 23 32 56 125 243 20 39 44 81 54 92 10 11
23 38 29 61 6 23 24 55 40 72 17 17 36 50 43 74 7 24 28 59 46 78 104 107 182
194 182 201 0 25 101 30 587 28 844 -3 1025 -2 1093 4 36 3 77 6 91 6 15 1 37
9 50 20 36 29 11 51 -56 51 -36 0 -60 6 -77 19 -23 18 -55 19 -693 25 -369 4
-724 8 -790 10 -66 2 -148 0 -182 -4z m-2036 -2966 c-3 -3 -12 -4 -19 -1 -8 3
-5 6 6 6 11 1 17 -2 13 -5z"/>
<path d="M17362 13323 c-23 -20 -33 -74 -15 -80 14 -5 38 31 47 70 7 31 -3 34
-32 10z"/>
<path d="M21742 13310 c0 -19 4 -46 8 -60 7 -23 8 -22 8 10 0 19 -4 46 -8 60
-7 23 -8 22 -8 -10z"/>
<path d="M17665 13321 c-3 -6 -12 -28 -20 -50 l-14 -40 27 2 c44 4 76 97 33
97 -11 0 -22 -4 -26 -9z"/>
<path d="M17232 13195 c-47 -21 -135 -24 -637 -25 -299 -1 -445 -4 -435 -11
14 -9 -42 -7 -142 5 -31 3 -32 2 -18 -25 9 -17 21 -19 93 -17 70 1 76 2 37 8
l-45 7 42 1 c23 1 45 7 48 12 3 6 12 10 18 10 7 0 6 -4 -3 -10 -8 -5 -11 -12
-8 -16 8 -8 226 -6 239 2 5 3 9 0 9 -6 0 -9 103 -11 388 -10 213 1 406 -2 428
-5 36 -6 44 -4 58 16 9 13 16 36 16 51 0 24 -4 28 -27 28 -16 -1 -43 -7 -61
-15z"/>
<path d="M17582 13178 c-5 -7 -15 -31 -21 -54 -7 -25 -22 -48 -42 -63 -17 -13
-39 -42 -50 -65 -10 -23 -27 -50 -38 -60 -10 -10 -25 -32 -32 -49 -7 -18 -29
-54 -50 -82 -57 -76 -65 -137 -15 -114 16 7 28 28 40 65 10 32 23 54 31 54 19
0 44 39 59 92 9 29 21 47 39 56 20 10 30 27 43 73 16 57 27 74 49 74 11 0 35
66 28 78 -7 11 -29 8 -41 -5z"/>
<path d="M15885 13161 c-44 -7 -39 -15 17 -25 33 -6 36 -5 31 14 -3 11 -6 19
-7 19 0 -1 -19 -5 -41 -8z"/>
<path d="M13358 13085 c-2 -2 -102 -6 -223 -9 -121 -3 -242 -8 -270 -11 -27
-3 -57 -6 -65 -6 -77 -6 -168 -55 -216 -117 -19 -25 -50 -108 -46 -124 1 -5
-2 -8 -8 -8 -13 0 -50 -32 -50 -43 0 -4 -9 -27 -20 -49 -11 -23 -20 -47 -20
-52 0 -6 -8 -16 -18 -22 -10 -7 -24 -31 -32 -55 -13 -42 -50 -101 -50 -83 -1
15 -39 -66 -42 -89 -2 -12 -18 -36 -36 -54 -24 -24 -35 -46 -44 -90 -11 -59
-24 -86 -38 -78 -13 8 -39 -29 -45 -64 -8 -45 -31 -88 -54 -101 -11 -5 -22
-22 -26 -38 -3 -15 -23 -54 -45 -85 -21 -32 -42 -72 -46 -89 -3 -18 -18 -44
-33 -58 -31 -29 -51 -71 -51 -105 0 -14 -12 -33 -29 -47 -28 -21 -75 -110 -65
-121 3 -2 -11 -19 -30 -37 -29 -28 -52 -77 -47 -102 0 -5 -3 -8 -8 -8 -5 0
-13 -9 -16 -21 -4 -11 -9 -18 -13 -15 -9 10 -42 -47 -42 -72 0 -12 -14 -37
-31 -55 -34 -35 -59 -84 -59 -117 0 -11 -15 -35 -34 -53 -32 -31 -61 -100 -50
-118 4 -8 -34 -49 -46 -49 -13 0 -40 -78 -40 -116 0 -23 -4 -34 -8 -27 -6 10
-13 9 -29 -2 -23 -16 -56 -101 -46 -118 3 -6 1 -7 -5 -3 -7 4 -12 1 -12 -9 0
-9 -4 -14 -8 -11 -10 6 -52 -65 -52 -88 0 -9 -15 -33 -33 -53 -43 -50 -57 -82
-45 -112 8 -23 9 -23 28 -6 11 10 27 38 36 64 10 25 25 55 34 66 29 35 47 70
54 103 4 17 16 38 25 44 24 17 61 78 61 100 0 10 15 35 33 55 19 21 41 58 51
83 10 25 35 62 58 82 22 21 37 42 33 48 -3 5 -1 10 5 10 7 0 9 -9 5 -22 -9
-32 43 54 230 382 170 296 197 349 150 293 -14 -18 -31 -33 -37 -33 -6 0 -6 6
2 15 7 8 9 15 6 15 -4 0 2 9 13 21 10 11 29 47 40 79 12 33 31 66 43 74 11 8
28 38 38 66 9 28 28 63 42 78 13 16 31 49 39 75 7 26 27 62 45 80 17 17 34 48
38 68 3 20 17 45 31 57 26 23 29 19 25 -28 -1 -24 -1 -24 13 -5 8 11 81 139
162 284 130 229 147 264 132 273 -23 13 -21 60 4 91 11 15 38 32 59 38 22 7
46 22 54 34 8 13 32 33 53 46 38 24 41 24 380 28 l342 3 27 -27 c22 -22 25
-32 21 -62 -4 -20 -58 -126 -121 -237 -64 -110 -114 -202 -111 -204 2 -2 11 3
20 12 18 18 35 21 35 7 0 -6 -11 -31 -25 -57 -15 -28 -25 -62 -24 -83 1 -20 3
-28 6 -18 2 10 10 17 16 16 29 -3 36 4 57 60 14 38 29 61 41 64 10 3 26 22 35
43 33 76 37 83 45 78 9 -5 68 83 69 102 0 6 7 18 16 25 14 12 36 52 38 71 1 3
4 10 9 14 4 4 7 18 7 31 0 13 11 34 23 46 51 47 57 86 20 135 -16 21 -38 33
-89 47 -38 10 -63 20 -56 23 8 2 7 8 -4 20 -11 11 -37 16 -85 18 -37 1 -69 1
-71 -1z"/>
<path d="M15599 12963 c-11 -3 -19 -19 -23 -47 -5 -32 -16 -52 -42 -76 -39
-35 -57 -73 -49 -101 5 -15 9 -16 25 -6 11 6 25 25 31 42 20 55 34 78 62 106
18 18 27 38 27 58 0 17 -3 30 -7 30 -5 -1 -15 -3 -24 -6z"/>
<path d="M21701 12752 c-13 -26 -23 -112 -23 -208 l0 -86 -31 -14 c-18 -7 -28
-13 -24 -14 5 0 1 -10 -7 -22 -9 -12 -16 -33 -16 -45 0 -26 -31 -84 -64 -119
-12 -14 -30 -50 -40 -80 -9 -30 -21 -54 -25 -54 -5 0 -19 -21 -31 -47 -12 -27
-25 -50 -29 -53 -16 -11 -71 -102 -71 -116 0 -8 -15 -29 -34 -47 -33 -31 -70
-100 -59 -110 13 -14 83 35 83 58 0 24 38 48 65 41 40 -10 61 8 115 100 133
225 255 534 255 646 0 24 5 38 13 38 6 0 12 5 12 10 0 6 -7 10 -16 10 -8 0
-12 5 -9 10 4 6 12 7 18 3 7 -3 4 2 -5 13 -9 10 -18 37 -20 58 -2 32 -7 40
-25 42 -14 2 -26 -3 -32 -14z"/>
<path d="M15444 12688 c-14 -7 -28 -29 -39 -65 -10 -30 -24 -60 -32 -66 -41
-33 -53 -49 -53 -67 0 -22 -24 -64 -50 -90 -23 -23 -40 -57 -40 -81 0 -12 -15
-35 -34 -53 -40 -37 -67 -109 -47 -129 16 -15 31 3 78 101 20 39 40 72 44 72
4 0 13 17 19 38 7 20 23 48 35 62 39 43 65 94 65 128 0 20 5 32 13 32 19 0 42
28 60 71 18 44 11 60 -19 47z"/>
<path d="M17256 12649 c-29 -34 -41 -71 -32 -95 12 -30 41 -10 58 41 29 89 20
109 -26 54z"/>
<path d="M17200 12537 c0 -7 -9 -18 -21 -25 -11 -7 -30 -34 -41 -60 -12 -26
-29 -54 -39 -63 -11 -9 -30 -41 -43 -71 -13 -29 -32 -60 -41 -68 -10 -8 -29
-39 -42 -70 -14 -30 -37 -68 -50 -84 -13 -15 -30 -44 -38 -62 -8 -19 -28 -51
-45 -72 -17 -21 -32 -52 -33 -68 -2 -25 2 -29 23 -29 22 0 27 8 43 55 12 40
25 59 46 71 23 14 32 28 41 72 10 45 17 57 36 61 15 4 26 16 30 34 10 45 47
112 60 112 16 0 29 24 39 70 5 22 22 49 46 71 36 33 39 40 39 87 0 29 -2 52
-5 52 -3 0 -5 -6 -5 -13z"/>
<path d="M21438 12484 c-10 -9 -1426 -18 -1613 -10 -82 3 -149 0 -210 -10
-172 -28 -200 -33 -240 -38 -64 -8 -369 -19 -635 -22 -366 -5 -1232 -15 -1253
-14 -27 0 -85 -68 -118 -138 -15 -34 -35 -65 -42 -68 -8 -3 -23 -24 -33 -47
-22 -48 -44 -78 -55 -72 -8 6 -39 -56 -39 -79 0 -26 -22 -65 -41 -71 -10 -3
-27 -25 -38 -48 -11 -23 -31 -53 -44 -68 -13 -14 -30 -43 -37 -65 -7 -21 -27
-55 -45 -74 -18 -19 -40 -53 -49 -74 -9 -21 -27 -48 -39 -60 -13 -12 -31 -42
-40 -67 -10 -25 -30 -55 -46 -66 -18 -14 -33 -38 -41 -68 -7 -25 -23 -54 -36
-64 -13 -10 -32 -38 -43 -62 -10 -24 -30 -54 -44 -65 -13 -12 -30 -39 -37 -60
-7 -22 -27 -55 -46 -74 -18 -19 -42 -56 -52 -81 -11 -25 -32 -58 -46 -74 -14
-15 -26 -39 -26 -51 0 -13 -16 -41 -35 -63 -19 -21 -44 -59 -55 -84 -11 -26
-29 -52 -39 -59 -10 -7 -26 -29 -36 -48 -10 -19 -30 -51 -46 -71 -15 -19 -35
-55 -43 -79 -8 -24 -28 -54 -44 -66 -15 -12 -34 -41 -42 -64 -8 -23 -24 -50
-37 -60 -14 -10 -29 -35 -34 -54 -5 -20 -28 -57 -50 -82 -22 -26 -42 -59 -45
-74 -3 -15 -19 -42 -34 -60 -16 -18 -36 -49 -45 -69 -9 -20 -31 -45 -48 -56
-22 -14 -35 -32 -41 -58 -19 -75 -40 -72 425 -74 239 -1 439 3 474 9 166 27
216 33 227 27 7 -4 17 -5 23 -1 5 3 17 8 27 9 31 5 108 85 120 124 6 21 28 54
48 73 27 25 39 46 44 75 4 27 17 51 36 69 16 16 38 48 49 73 10 24 28 52 39
61 12 9 26 36 32 59 7 24 26 56 45 74 18 18 39 50 46 71 7 22 25 53 40 69 15
17 34 47 43 67 8 21 28 55 44 75 17 21 35 55 42 75 6 21 24 48 40 62 16 13 38
48 49 77 11 29 31 64 44 78 14 14 27 37 30 51 4 14 24 47 47 74 23 27 40 59
40 73 0 14 15 40 35 61 18 20 46 52 61 71 l28 33 120 -6 c229 -13 1265 -2
1391 14 44 5 104 12 134 15 31 3 59 12 65 20 17 24 52 30 236 40 134 7 160 12
160 31 0 8 3 13 8 12 4 -1 24 6 45 15 21 9 62 19 90 22 110 11 147 17 147 24
0 10 74 51 101 56 12 2 42 7 67 10 42 5 54 12 110 63 7 6 24 13 38 13 13 1 29
3 34 4 6 1 17 3 26 4 9 0 29 17 46 36 26 29 76 53 99 47 4 0 24 14 45 32 22
18 57 42 79 54 22 11 72 51 110 89 39 37 86 82 105 99 43 38 108 115 137 163
12 20 35 45 52 56 24 16 33 31 41 72 7 31 19 58 30 66 41 29 68 134 40 152
-16 10 -68 24 -72 19z"/>
<path d="M13234 12256 c-18 -17 -37 -41 -43 -53 -14 -28 -25 -29 -37 -3 -7 16
-87 -117 -456 -758 -246 -427 -456 -799 -468 -827 -12 -27 -37 -72 -57 -100
-20 -27 -58 -87 -85 -133 -47 -82 -47 -83 -28 -102 20 -20 20 -20 -4 -59 -14
-21 -30 -57 -36 -81 -7 -25 -23 -53 -40 -67 -16 -13 -31 -37 -35 -53 -4 -17
-24 -54 -46 -82 -21 -29 -39 -60 -39 -69 0 -10 -15 -35 -34 -58 -19 -22 -42
-61 -52 -87 -9 -25 -29 -58 -44 -74 -14 -15 -32 -47 -39 -69 -6 -23 -25 -56
-40 -74 -16 -18 -34 -50 -40 -72 -6 -23 -25 -54 -45 -73 -40 -37 -90 -128 -76
-137 11 -7 99 18 129 36 11 8 21 19 21 26 0 7 5 13 10 13 6 0 10 5 10 11 0 5
-4 8 -8 5 -5 -3 -16 8 -25 24 -17 28 -17 29 13 50 19 14 33 36 41 63 18 67 28
87 43 87 16 0 42 50 51 101 4 24 15 41 30 49 13 7 28 26 34 41 6 16 16 42 22
59 6 16 19 32 29 35 19 6 37 42 46 90 2 17 15 39 28 50 31 27 56 77 56 115 0
20 5 30 15 30 22 0 65 49 65 72 0 24 30 78 43 78 13 0 47 40 47 55 0 6 25 38
55 70 30 32 55 63 55 70 0 7 7 18 14 25 8 6 29 52 47 101 17 49 35 89 38 89
12 0 38 55 50 106 7 30 23 62 36 74 13 12 32 45 42 73 11 31 26 54 40 60 13 6
23 16 23 24 0 7 4 21 9 31 5 9 15 32 21 50 7 17 18 32 24 32 14 0 56 70 56 93
0 8 16 34 35 57 19 23 35 48 35 55 0 7 16 35 36 61 20 26 46 68 56 92 11 25
35 64 53 88 18 24 36 61 40 84 4 22 14 46 23 53 20 14 45 59 61 107 6 19 24
44 41 55 16 11 30 27 30 36 0 9 15 39 34 66 19 27 42 78 52 113 11 40 23 64
34 67 21 6 43 67 38 109 l-3 31 -31 -31z"/>
<path d="M15096 12105 c-14 -14 -28 -41 -32 -60 -3 -19 -10 -38 -15 -41 -5 -3
-9 -15 -9 -26 0 -12 -3 -18 -6 -15 -11 11 -43 -33 -54 -72 -5 -20 -25 -51 -45
-69 -19 -19 -36 -43 -36 -55 -2 -26 -5 -57 -7 -75 -1 -7 -6 -11 -11 -7 -5 3
-22 -5 -37 -18 -21 -18 -28 -34 -31 -78 l-5 -54 34 37 c19 20 40 55 47 78 7
23 28 62 47 86 19 25 34 50 34 56 0 6 11 25 24 42 38 50 56 93 57 133 0 26 3
32 8 20 6 -17 8 -16 27 5 32 36 51 70 58 106 9 40 -12 44 -48 7z"/>
<path d="M16753 11812 c-17 -18 -34 -45 -38 -61 -3 -16 -18 -39 -32 -52 -14
-13 -36 -46 -48 -74 -13 -27 -37 -67 -54 -89 -17 -21 -31 -47 -31 -57 0 -11
-16 -36 -35 -58 -19 -21 -42 -55 -50 -75 -9 -20 -31 -57 -50 -82 -19 -25 -35
-54 -35 -64 0 -10 -18 -39 -39 -65 -54 -65 -62 -122 -16 -113 21 4 29 17 47
78 8 29 21 48 35 55 27 11 53 61 53 99 0 19 9 32 30 44 21 12 36 34 51 75 15
40 29 61 45 67 16 7 25 20 30 47 9 52 21 72 49 83 24 9 45 59 45 108 0 15 8
26 25 32 31 12 57 62 53 103 l-3 32 -32 -33z"/>
<path d="M12040 11775 c-7 -9 -11 -17 -9 -20 3 -2 10 5 17 15 14 24 10 26 -8
5z"/>
<path d="M14750 11518 c-11 -12 -21 -32 -21 -45 -1 -13 -2 -27 -3 -33 0 -5
-18 -27 -38 -50 -21 -22 -38 -49 -38 -60 0 -30 -21 -69 -42 -76 -25 -7 -48
-55 -48 -98 0 -28 -6 -38 -32 -55 -24 -14 -39 -36 -56 -80 -14 -35 -30 -61
-38 -61 -12 0 -45 -60 -43 -78 3 -20 -16 -52 -32 -57 -23 -7 -49 -54 -49 -87
0 -35 -11 -68 -21 -62 -27 16 -69 -46 -69 -102 0 -52 51 -10 80 66 12 30 31
63 42 74 11 10 29 39 39 64 11 25 31 57 44 70 14 14 30 43 37 66 6 22 24 55
39 71 15 17 37 54 49 84 11 30 32 62 45 73 14 10 29 37 35 59 6 22 27 61 46
85 19 25 37 58 40 72 4 15 20 41 36 58 29 31 60 102 51 116 -8 15 -32 8 -53
-14z"/>
<path d="M20744 11428 c-15 -4 -39 -18 -53 -31 -14 -14 -50 -30 -78 -37 -29
-6 -69 -25 -89 -41 -36 -29 -54 -34 -152 -43 -31 -3 -73 -16 -100 -32 -49 -27
-96 -36 -272 -54 -58 -6 -158 -24 -223 -40 -112 -28 -136 -30 -440 -40 -177
-6 -529 -11 -782 -11 -424 0 -462 -1 -483 -17 -24 -19 -22 -52 4 -52 8 0 14
-9 14 -19 0 -18 13 -19 208 -26 247 -9 907 0 1117 15 604 43 1054 134 1298
262 48 26 57 35 57 58 0 18 8 33 24 43 30 20 56 46 56 57 0 11 -73 17 -106 8z"/>
<path d="M16253 10991 c-18 -17 -33 -38 -33 -45 0 -8 -20 -44 -44 -79 -24 -35
-47 -75 -51 -88 -4 -13 -20 -39 -36 -56 -15 -18 -34 -52 -40 -75 -7 -24 -25
-55 -41 -70 -16 -15 -36 -44 -44 -63 -8 -20 -30 -58 -49 -84 -19 -27 -35 -57
-35 -68 0 -11 -14 -32 -31 -49 -52 -49 -79 -124 -45 -124 24 0 52 33 70 81 9
25 29 55 45 67 23 17 30 32 36 72 4 27 11 47 16 44 5 -3 9 0 9 5 0 6 9 11 19
11 16 0 23 14 37 70 14 51 23 70 35 70 21 0 32 14 53 71 10 27 26 51 41 59 23
12 45 61 45 100 0 9 13 23 29 33 35 20 53 62 49 112 l-3 37 -32 -31z"/>
<path d="M17949 10985 c-14 -7 -34 -31 -44 -52 -11 -21 -31 -51 -46 -68 -14
-16 -34 -50 -44 -75 -11 -25 -29 -54 -41 -66 -11 -11 -29 -42 -39 -70 -11 -27
-28 -58 -40 -69 -12 -12 -34 -46 -48 -77 -15 -31 -32 -60 -37 -63 -6 -4 -22
-29 -36 -58 -15 -28 -36 -59 -48 -68 -12 -10 -31 -34 -41 -56 -11 -21 -37 -64
-57 -95 -21 -31 -38 -62 -38 -68 0 -6 -10 -29 -22 -52 -13 -22 -31 -55 -40
-72 -9 -17 -17 -40 -18 -51 0 -11 -17 -42 -39 -67 -21 -26 -41 -62 -45 -81 -3
-18 -20 -46 -36 -62 -17 -16 -30 -38 -30 -50 0 -52 -36 -70 -160 -80 -78 -7
-499 -27 -625 -31 -66 -2 -151 -6 -190 -9 -139 -11 -264 -15 -495 -18 l-235
-2 -3 37 c-2 24 2 41 13 50 46 36 64 63 70 100 5 30 14 44 36 56 19 12 34 34
49 74 12 33 28 59 39 63 24 7 40 41 43 90 2 32 8 42 29 52 16 8 33 29 43 53
16 40 21 80 11 80 -21 0 -55 -38 -70 -77 -10 -25 -31 -59 -46 -76 -15 -16 -33
-45 -40 -66 -6 -20 -24 -49 -40 -66 -15 -16 -38 -52 -50 -80 -12 -27 -35 -65
-50 -83 -16 -18 -29 -41 -29 -51 0 -10 -11 -29 -23 -42 -13 -13 -36 -45 -51
-71 -16 -27 -31 -48 -34 -48 -4 0 -20 -20 -35 -45 -26 -40 -27 -47 -15 -72
l13 -27 145 2 c160 3 290 9 1087 52 585 31 567 29 638 92 38 33 44 43 539 886
l307 523 -21 34 c-24 39 -25 40 -61 20z"/>
<path d="M14173 10508 c-11 -13 -26 -43 -33 -67 -8 -25 -26 -52 -42 -64 -17
-13 -33 -40 -44 -74 -9 -29 -19 -51 -22 -49 -14 15 -48 -46 -63 -113 -8 -37
-14 -48 -25 -44 -16 6 -53 -34 -54 -57 -1 -40 -21 -86 -42 -95 -16 -7 -29 -29
-42 -67 -11 -32 -25 -58 -31 -58 -16 0 -55 -73 -55 -103 0 -27 -23 -57 -44
-57 -18 0 -46 -65 -46 -108 0 -28 -3 -33 -10 -22 -6 10 -10 11 -10 3 0 -7 -6
-13 -14 -13 -8 0 -23 -19 -34 -43 -18 -39 -25 -44 -86 -62 -50 -15 -66 -24
-66 -38 0 -10 4 -16 9 -12 5 3 16 -2 24 -10 22 -21 36 -19 82 11 73 49 94 74
105 131 6 29 15 51 20 48 15 -9 48 35 65 84 8 26 26 58 40 73 13 14 27 38 31
53 4 15 21 46 39 70 42 54 55 79 55 102 0 10 16 34 35 52 25 23 40 50 52 91
11 41 23 62 39 71 14 7 29 28 35 50 7 20 22 48 34 61 30 32 55 82 55 107 0 12
16 35 36 53 26 25 37 44 41 76 6 47 -4 53 -34 20z"/>
<path d="M11120 10266 c0 -9 -4 -15 -9 -12 -15 10 -71 -50 -71 -76 0 -42 -12
-68 -30 -68 -13 0 -25 -16 -39 -55 -12 -31 -21 -63 -21 -71 0 -8 -4 -12 -10
-9 -5 3 -10 0 -10 -8 0 -8 -9 -17 -19 -20 -15 -3 -23 -20 -31 -65 -9 -46 -18
-63 -36 -73 -29 -15 -54 -62 -54 -100 0 -28 -17 -51 -50 -69 -9 -5 -23 -30
-29 -55 -9 -36 -19 -51 -46 -66 -21 -13 -38 -33 -45 -55 -11 -32 -41 -60 -52
-48 -3 2 -13 -11 -22 -30 -15 -32 -50 -55 -63 -42 -10 10 -67 -25 -95 -57 -19
-24 -35 -32 -60 -33 -18 0 -60 -4 -93 -9 -33 -5 -64 -8 -68 -7 -4 1 -10 -5
-13 -13 -3 -8 -10 -12 -15 -9 -5 3 -9 0 -9 -5 0 -6 -10 -11 -22 -12 -22 -1
-22 -1 2 -8 l25 -8 -25 -5 c-21 -5 -20 -5 8 -7 18 0 31 2 29 7 -3 4 26 7 63 8
56 1 80 7 141 37 41 20 91 40 111 45 71 19 220 152 247 222 8 19 24 46 37 60
12 14 27 43 33 66 6 22 20 49 32 60 28 25 49 67 49 97 0 13 13 36 31 53 35 33
59 74 59 102 0 10 15 35 34 56 18 21 39 56 45 77 7 22 25 55 42 73 28 33 66
132 55 144 -3 3 -6 -2 -6 -12z"/>
<path d="M5367 9959 c-23 -35 -37 -130 -37 -245 0 -96 -1 -103 -21 -109 -19
-6 -21 -12 -15 -59 4 -28 20 -88 35 -134 76 -221 253 -400 473 -478 l42 -15
-27 29 c-15 15 -27 33 -27 39 0 17 46 7 105 -22 28 -14 76 -27 108 -30 52 -6
80 -20 89 -44 2 -7 204 0 558 19 305 16 870 45 1255 64 385 20 720 37 745 39
l45 2 -60 8 c-71 10 -135 35 -135 54 0 12 -20 18 -44 14 -30 -6 -117 -13 -151
-13 -771 7 -1015 0 -1015 -29 0 -5 -35 -9 -77 -9 -54 0 -73 3 -63 10 12 8 11
10 -7 10 -13 0 -23 -4 -23 -9 0 -19 -67 -31 -170 -31 -267 1 -730 -10 -780
-19 -102 -17 -320 5 -320 33 0 13 -35 46 -50 46 -23 0 -120 50 -120 62 0 7
-16 23 -35 36 -19 12 -47 41 -61 65 -15 23 -34 49 -43 57 -9 8 -25 28 -35 44
-10 16 -37 49 -59 73 l-40 44 -9 157 c-5 86 -6 198 -3 247 6 101 -3 133 -28
94z m3118 -899 c3 -5 1 -10 -4 -10 -6 0 -11 5 -11 10 0 6 2 10 4 10 3 0 8 -4
11 -10z"/>
<path d="M12388 9335 c-5 -5 -531 -17 -690 -15 -47 1 -30 -46 17 -48 87 -4
311 0 465 8 101 5 236 6 300 3 87 -4 132 -2 187 11 40 9 86 16 102 16 33 0 43
14 14 18 -65 7 -389 13 -395 7z"/>
<path d="M9017 9163 c-1 -1 -52 -4 -112 -6 -61 -3 -121 -10 -135 -16 -14 -5
-21 -10 -16 -10 6 -1 1 -8 -10 -16 -17 -13 1 -14 161 -14 99 -1 248 4 330 10
83 5 260 12 395 14 135 3 256 7 270 9 14 2 34 4 45 5 18 2 17 4 -5 13 -16 7
-178 11 -473 12 -247 0 -449 0 -450 -1z"/>
<path d="M10022 9108 c-141 -28 -162 -39 -62 -33 95 6 264 34 256 43 -12 11
-112 7 -194 -10z"/>
<path d="M8550 9089 c0 -5 5 -7 10 -4 6 3 10 8 10 11 0 2 -4 4 -10 4 -5 0 -10
-5 -10 -11z"/>
</g>
</svg>
